 <svg  version="1.0" xmlns="http://www.w3.org/2000/svg"  width="300.000000pt" height="247.000000pt" viewBox="0 0 300.000000 247.000000"  preserveAspectRatio="xMidYMid meet">  <g transform="translate(0.000000,247.000000) scale(0.100000,-0.100000)" fill="#38d6c4" stroke="none"> <path d="M50 2421 c0 -7 140 -123 600 -498 2 -2 -10 -30 -28 -61 -18 -31 -45 -81 -60 -110 l-26 -52 94 -95 c52 -52 102 -95 110 -95 29 0 203 131 183 137 -6 2 -46 -21 -91 -52 -44 -30 -83 -55 -86 -55 -13 0 -116 141 -118 162 -1 13 10 41 24 63 14 22 44 75 68 118 24 42 47 77 52 77 4 0 8 -1 8 -3 0 -2 11 -56 25 -121 14 -65 25 -123 25 -128 0 -7 -30 -8 -85 -3 -56 4 -85 3 -85 -4 0 -16 10 -19 107 -26 l92 -7 6 38 c3 22 12 70 21 107 8 37 12 71 10 76 -3 4 0 16 7 25 12 17 14 17 27 1 10 -12 15 -54 18 -139 13 -384 23 -468 100 -906 l19 -104 -84 -326 c-89 -346 -101 -400 -86 -400 5 0 16 12 25 28 9 15 25 36 35 47 10 11 49 58 87 105 38 47 73 90 78 95 7 7 8 -39 3 -132 -4 -79 -3 -143 1 -143 5 0 20 20 34 45 14 25 95 168 181 317 86 150 167 292 179 315 14 25 35 47 53 54 31 13 22 14 286 -37 69 -13 133 -24 144 -24 11 0 64 14 119 30 54 17 103 28 108 25 6 -4 10 -141 10 -366 0 -368 4 -401 36 -321 9 20 42 91 74 157 32 66 61 131 65 144 4 12 11 19 15 15 4 -5 22 -84 40 -177 18 -92 36 -170 40 -172 11 -7 18 19 81 278 l53 218 -18 72 c-39 157 -108 392 -118 404 -6 7 -47 24 -91 38 -127 41 -129 60 -15 184 469 508 507 551 483 551 -2 0 -64 -26 -137 -58 -73 -32 -204 -89 -291 -127 l-159 -70 -60 -108 -61 -109 -46 6 c-25 3 -86 8 -136 12 -100 7 -111 12 -202 91 l-62 54 -52 217 c-28 119 -56 222 -60 228 -5 6 -31 14 -57 18 -31 4 -52 13 -63 27 -13 18 -47 26 -208 53 l-193 32 -97 97 c-53 53 -100 97 -106 97 -5 0 -40 -30 -77 -67 l-67 -66 -188 86 c-103 47 -224 101 -268 120 -44 19 -113 51 -152 71 -74 37 -93 43 -93 27z m155 -84 c11 -8 55 -28 97 -45 74 -31 129 -56 288 -129 41 -19 92 -42 113 -50 40 -16 57 -43 57 -89 0 -27 -48 -117 -59 -112 -6 3 -129 104 -352 288 -69 58 -139 115 -155 127 -31 24 -21 32 11 10z m767 -184 c38 -37 68 -73 68 -80 0 -16 0 -16 -69 2 -47 12 -115 22 -168 24 -7 1 -13 5 -13 10 0 14 90 111 103 111 6 0 42 -30 79 -67z m-182 -74 c0 -6 -4 -7 -10 -4 -5 3 -10 11 -10 16 0 6 5 7 10 4 6 -3 10 -11 10 -16z m495 -82 l190 -33 95 -270 c52 -149 101 -283 107 -298 15 -32 11 -34 -63 -38 l-51 -3 -159 150 c-87 82 -238 224 -334 315 -96 92 -194 184 -217 205 -24 20 -43 40 -43 44 0 8 131 -13 475 -72z m-479 45 c6 -4 28 -26 48 -50 l39 -42 -18 -86 c-10 -46 -21 -87 -25 -89 -3 -2 -19 53 -34 122 -15 69 -30 132 -33 139 -6 15 6 18 23 6z m791 -135 c2 -3 22 -78 43 -168 22 -90 44 -176 49 -191 6 -16 6 -28 2 -28 -23 0 -54 62 -105 207 -31 90 -59 170 -63 180 -5 14 -1 15 32 10 20 -3 39 -8 42 -10z m-957 -116 c-42 -75 -49 -95 -39 -107 19 -23 4 -26 -17 -3 -18 20 -18 21 9 72 16 29 40 74 54 100 15 28 29 45 35 39 5 -5 -13 -47 -42 -101z m539 -108 c108 -104 229 -218 269 -254 39 -37 72 -72 72 -78 0 -11 -16 -16 -35 -11 -26 7 -319 -2 -393 -11 -46 -6 -85 -9 -87 -8 -3 4 -35 489 -35 532 0 9 3 17 6 17 3 0 95 -84 203 -187z m1591 -10 c-24 -27 -68 -75 -99 -108 -53 -57 -230 -248 -319 -345 -23 -25 -42 -39 -42 -32 0 8 -25 37 -56 66 l-56 52 57 102 c41 73 66 107 87 118 75 39 461 202 467 198 2 -2 -15 -25 -39 -51z m-1043 -220 c30 -27 69 -60 85 -75 l31 -27 -59 6 c-32 3 -62 8 -66 12 -9 9 -58 131 -52 131 3 0 30 -21 61 -47z m201 -139 c85 -8 167 -12 183 -9 51 11 34 -18 -48 -86 -43 -35 -126 -103 -185 -152 l-108 -89 -52 25 c-55 26 -578 254 -636 277 -19 7 -29 17 -24 22 4 4 107 11 228 14 120 3 260 9 309 13 98 9 109 8 333 -15z m-850 -58 c73 -36 603 -264 635 -271 15 -4 27 -13 27 -19 0 -15 -111 -107 -155 -128 -16 -9 -46 -18 -65 -22 -31 -6 -58 -35 -240 -262 -113 -141 -225 -281 -249 -312 -63 -83 -91 -115 -95 -111 -4 4 68 291 135 542 l24 89 -34 196 c-18 109 -39 225 -46 260 -15 73 -11 75 63 38z m1162 -21 l43 -44 24 -143 c28 -175 28 -195 6 -201 -10 -3 -83 -22 -161 -43 l-144 -37 -124 27 c-68 15 -152 29 -186 32 -34 2 -63 6 -65 8 -2 2 21 21 50 44 30 22 60 46 68 54 8 7 48 40 89 72 77 62 295 241 318 264 22 20 35 14 82 -33z m177 -206 c75 -25 77 -31 58 -196 -48 -397 -38 -355 -115 -519 -39 -82 -70 -155 -70 -161 0 -11 -18 -20 -21 -10 0 1 -3 151 -6 333 l-5 331 47 12 c46 12 101 57 142 119 31 45 0 36 -42 -13 -49 -56 -46 -58 -60 49 -4 27 -9 55 -12 62 -7 19 13 18 84 -7z m149 -290 c26 -95 46 -185 46 -199 -1 -25 -76 -353 -91 -392 -5 -15 -16 25 -39 138 -30 155 -30 161 -17 249 7 50 18 149 25 220 11 127 18 170 26 163 2 -2 24 -83 50 -179z m-756 44 c96 -20 188 -36 203 -36 18 0 25 -3 18 -10 -11 -11 -401 62 -401 75 0 10 -19 13 180 -29z m-255 4 c-24 -13 -47 -38 -59 -62 -12 -22 -89 -161 -173 -308 -84 -148 -153 -272 -153 -277 0 -5 -5 -12 -12 -16 -8 -5 -9 24 -4 116 l7 123 72 92 c200 254 261 323 302 339 58 21 66 19 20 -7z m528 -34 c-7 -2 -19 -2 -25 0 -7 3 -2 5 12 5 14 0 19 -2 13 -5z"/> </g> </svg> 